<?xml version="1.0" encoding="utf-8"?>
<svg version="1.1" xmlns="http://www.w3.org/2000/svg" xmlns:xlink="http://www.w3.org/1999/xlink" x="0px" y="0px" width="164px" height="56px" viewBox="0 0 164 56" style="enable-background:new 0 0 164 56;" preserveAspectRatio="xMidYMid meet" xml:space="preserve">
<style type="text/css">
	.st0{fill:#FFA827;}
	.st1{fill:#010101;}
</style>
<g>
	<path class="st0" d="M60.6,39.99c0.12-0.41,0.23-0.83,0.32-1.25c0.42-1.94,0.56-3.95,0.46-5.97c-0.1-2.01-0.43-4.04-1.03-6.02
		c-1.19-3.96-3.32-7.76-6.36-11.12c-2.09-2.39-4.89-4.48-7.99-5.9c-3.1-1.44-6.48-2.23-9.66-2.43c3.76,0.35,7.48,1.46,10.82,3.28
		c3.35,1.81,6.31,4.36,8.6,7.37c2.29,3.01,3.9,6.49,4.67,10.07c0.77,3.57,0.72,7.25-0.07,10.61c-0.25-1.44-0.49-3.06-0.58-4.93
		c-0.06-4.51-1.35-8.97-3.74-12.76c0.16-0.1,0.47-0.3,0.62-0.41c-1.9-2.66-4.14-4.99-6.67-6.91c-2.53-1.92-5.36-3.41-8.39-4.36
		c-6.02-1.92-13.02-1.53-18.73,1.74c0.47-0.1,0.28,0.15,0.25,0.3c-0.03,0.01-0.06,0.03-0.08,0.04c0.03-0.01,0.05-0.03,0.08-0.04
		c-0.03,0.13,0.05,0.18,0.78-0.14c-0.72,0.33-0.81,0.27-0.78,0.14C28.79,8.5,35.38,8,41.27,9.68c5.9,1.66,11.14,5.55,14.5,10.82
		c-2.64-4.07-6.49-7.32-10.88-9.28c-4.39-1.96-9.34-2.66-14.11-1.96c-4.76,0.68-9.32,2.72-13.03,5.87
		c-3.71,3.14-6.56,7.36-8.04,12.1c-0.24,0.81-0.68,2.44-0.79,3.29c-0.57,1.62-0.88,3.34-0.97,5.08c-0.08,1.74,0.08,3.49,0.46,5.19
		c-0.55-0.33-1.1,0.47-1.64,0.49c-0.27,0-0.56-0.2-0.83-0.89c-0.26-0.69-0.53-1.87-0.55-3.77c-0.19,0.01-0.56,0.03-0.75,0.04
		c-0.25,3.91-0.23,6.83-0.83,7.85c-0.15,0.24-0.34,0.36-0.56,0.36c-0.22,0-0.47-0.15-0.76-0.48c-0.57-0.65-1.27-1.97-1.8-4.15
		c-1.16-4.9-0.87-11.05,1.3-16.89c1.08-2.91,2.58-5.74,4.44-8.3c0.45-0.65,0.95-1.26,1.44-1.89c0.52-0.6,1.01-1.21,1.56-1.78
		c1.06-1.16,2.21-2.24,3.38-3.25c3.46-2.9,7.52-5.13,11.89-6.42c4.37-1.29,9-1.63,13.47-0.95c6.14,0.93,12.29,3.51,17.24,7.59
		c0.63,0.49,1.21,1.05,1.8,1.58c0.57,0.56,1.14,1.11,1.67,1.71c0.55,0.58,1.04,1.2,1.54,1.81c0.47,0.64,0.96,1.26,1.39,1.92
		c1.77,2.61,3.08,5.46,3.93,8.34c0.67,2.08,1.49,4.98,1.82,7.7c0.35,2.72,0.23,5.2-0.15,6.26c-0.41,1.53-0.84,1.52-1.25,1.24
		c0.46-3.42,0.32-6.91-0.32-10.29c-0.67-3.38-1.86-6.65-3.54-9.63c-2-3.69-4.73-7.01-8-9.71c-3.27-2.7-7.08-4.8-11.18-6.11
		c3.99,1.36,7.75,3.43,11.02,6.11c3.28,2.68,6.07,5.98,8.16,9.71c1.64,3,2.76,6.26,3.37,9.59c0.57,3.34,0.65,6.75,0.16,10.08
		c-0.35-0.29-0.73-0.55-1.14-0.2c0,0-0.05,0.5-0.15,1.12c-0.09,0.62-0.23,1.36-0.34,1.85c-0.89,1.86-1.69,2.35-2.22,2.19
		c-0.54-0.17-0.86-1-1.1-1.98C60.8,41.12,60.7,40.58,60.6,39.99"/>
	<path class="st1" d="M44.35,45.99l0.05,0.08c0.19,0.27,0.42,0.64,0.63,1.01c-0.15-0.25-0.3-0.48-0.44-0.7L44.33,46
		c-0.01-0.01-0.02-0.02-0.03-0.03c-0.01-0.01-2.91-1.23-4.02-1.63c-2.22-0.79-4.51-1.53-6.75-2.17l-0.68-0.18
		c-0.03-0.01-0.07-0.01-0.1-0.02c-0.03,0-0.06,0.02-0.09,0.04l-0.04,0.03l-0.09,0.09c-0.7,0.68-1.46,1.59-2.2,2.5
		c-0.76,0.95-1.51,1.89-2.27,2.84c-0.39,0.49-0.79,0.98-1.23,1.48c-0.22,0.25-0.45,0.51-0.7,0.77c-0.13,0.13-0.26,0.27-0.41,0.41
		l-0.24,0.22l-0.31,0.25c-0.68,0.49-1.41,0.79-1.98,0.93l-0.45,0.12l-0.41,0.08l-0.41,0.07l-0.39,0.04c-1.03,0.11-1.98,0.11-2.9,0.1
		c-0.5-0.01-1.51-0.04-2.01-0.05l-0.22-0.04c-0.08-0.01-0.06-0.02-0.07-0.04c-0.02-0.02-0.04-0.04-0.07-0.06
		c-0.05-0.04-0.12-0.08-0.18-0.08c-0.07,0.01-0.12,0.04-0.18,0.09c-0.03,0.02-0.06,0.06-0.08,0.09c0-0.01-0.06,0.1-0.09,0.16
		l-0.11,0.2c-0.28,0.55-0.53,1.16-0.76,1.78c-0.66-0.24-0.46-0.63-0.67-0.99c-0.1,0.14-1.15,1.73-2.7,1.59
		c-1.07-0.23-0.89-1.03-0.32-3.09c0.15-0.51,0.33-1.03,0.57-1.6c0.11-0.22,0.22-0.45,0.33-0.67c0.13-0.22,0.26-0.44,0.39-0.66
		c0.15-0.2,0.29-0.42,0.48-0.59c0.19-0.16,0.38-0.33,0.58-0.5c0.3-0.12,0.6-0.25,0.9-0.37c0.14-0.07,0.33-0.06,0.49-0.1
		c0.17-0.02,0.33-0.06,0.51-0.06c0.34-0.01,0.73-0.03,1.02-0.03c0.19,0,0.39,0.01,0.59,0.01c0.76,0.02,1.48,0.05,2.19,0.06
		c0.7,0.01,1.39,0,1.98-0.07c0.58-0.05,1.07-0.24,1.02-0.23c0-0.01,0.02-0.02,0.05-0.04l0.11-0.1c0.08-0.08,0.16-0.16,0.25-0.26
		c0.18-0.19,0.37-0.41,0.56-0.63c0.38-0.45,0.76-0.94,1.13-1.43c1.21-1.57,2.39-3.2,3.86-4.83c0.19-0.21,0.38-0.41,0.59-0.62
		l0.33-0.32l0.23-0.21l0.28-0.24c0.19-0.15,0.4-0.3,0.6-0.45c0.21-0.13,0.41-0.27,0.64-0.36c0.43-0.21,0.91-0.35,1.39-0.35
		c0.24,0.02,0.48,0.02,0.72,0.05l0.72,0.17c0.58,0.13,0.7,0.19,0.99,0.27c0.5,0.16,0.99,0.33,1.48,0.5
		c2.65,0.98,5.38,1.93,8.15,3.06c0.35,0.15,0.69,0.29,1.06,0.46l0.54,0.25l0.64,0.33c0.26,0.18,0.55,0.35,0.79,0.56
		c0.24,0.22,0.45,0.47,0.64,0.73c0.28,0.38,0.47,0.71,0.68,1.04c0.78,1.31,1.41,2.55,2.03,3.78c0.38,0.72,0.96,1.62,1.53,2.43
		c0.18,0.25,0.21,0.29,0.26,0.35c0.05,0.05,0.09,0.11,0.13,0.16c0.08,0.09,0.17,0.21,0.28,0.22c0.09,0.01,0.16,0.02,0.21,0.06
		c0.23,0.07,0.37,0.25,0.39,0.53c-0.24,0.12-0.48,0.23-0.73,0.28c-0.21,0.05-0.37-0.15-0.5-0.28c-0.13-0.15-0.25-0.31-0.36-0.48
		l-0.2-0.3l-0.28-0.43l-0.55-0.87c-0.72-1.18-0.76-1.14-0.06,0.06l0.53,0.89l0.47,0.75c0.12,0.18,0.24,0.36,0.38,0.54
		c0.14,0.16,0.3,0.38,0.54,0.34c0.26-0.03,0.52-0.14,0.77-0.25c0,0.25-0.05,0.54,0.16,0.68c0,0,0.2-0.1,0.44-0.25
		c0.23-0.14,0.56-0.35,0.76-0.49c0.97-0.33,1.46-0.33,1.67-0.07c0.19,0.26,0.08,0.76-0.2,1.29c-0.16,0.25-0.34,0.53-0.57,0.82
		l-0.39,0.21c-0.19,0.09-0.37,0.19-0.55,0.28c-0.21,0.11-0.42,0.19-0.63,0.29c-0.21,0.08-0.42,0.16-0.63,0.23
		c-0.42,0.13-0.84,0.16-1.25,0.18l-0.28-0.04c-0.08-0.06-0.18-0.06-0.27-0.1c-0.18-0.06-0.34-0.14-0.5-0.24
		c-0.31-0.2-0.59-0.48-0.86-0.77c-0.5-0.59-1.03-1.4-1.24-1.75c-0.56-0.89-1.07-1.78-1.59-2.67c-0.51-0.88-0.43-0.55,0.04,0.31
		c0.47,0.86,0.94,1.72,1.46,2.6l0.21,0.35l0.32,0.49c0.23,0.34,0.47,0.67,0.74,0.97c0.27,0.29,0.55,0.57,0.87,0.77
		c0.16,0.09,0.33,0.17,0.51,0.23c0.09,0.04,0.19,0.04,0.27,0.1l0.28,0.05c0.44-0.01,0.88-0.02,1.32-0.14
		c0.22-0.06,0.45-0.15,0.67-0.22c0.22-0.1,0.45-0.18,0.67-0.29c-0.18,0.15-0.37,0.27-0.58,0.42c-0.21,0.13-0.43,0.25-0.65,0.37
		c-0.46,0.23-0.96,0.33-1.5,0.39l-0.26-0.02l-0.07,0l-0.03,0l-0.02,0l0,0h0c-0.01,0.03,0.01-0.04,0.01-0.03h0l0,0l-0.01,0
		l-0.14-0.02c-0.18-0.03-0.36-0.06-0.53-0.13c-0.34-0.13-0.67-0.34-0.98-0.63c-0.47-0.42-0.88-1-1.24-1.52l-0.26-0.39l-0.15-0.24
		l-0.29-0.46c-0.37-0.61-0.72-1.21-1.05-1.8c-0.67-1.18-1.32-2.34-1.97-3.43"/>
	<polygon class="st0" points="42,16.5 43.28,18.14 45.04,17.04 45.33,19.1 47.41,19.03 46.64,20.96 48.47,21.93 46.83,23.21 
		47.93,24.98 45.87,25.27 45.94,27.35 44.02,26.57 43.04,28.41 41.76,26.77 39.99,27.87 39.7,25.81 37.62,25.88 38.4,23.95 
		36.57,22.97 38.2,21.69 37.1,19.93 39.16,19.64 39.09,17.56 41.02,18.34 	"/>
	<path class="st0" d="M158.77,54.92H80.1c-2.89,0-5.23-2.34-5.23-5.23v-5.11c0-2.89,2.34-5.23,5.23-5.23h78.67
		c2.89,0,5.23,2.34,5.23,5.23v5.11C164,52.58,161.66,54.92,158.77,54.92"/>
	<path class="st1" d="M80.86,4.06c3.72,0,5.58,0.76,7.26,2.91c2.05,2.67,2.86,6.4,2.86,13.46c0,6.68-0.91,10.55-3.06,12.94
		c-1.72,1.81-4.15,2.53-8.83,2.53h-1.77c-1.48,0.05-1.77-0.24-1.72-1.72V5.78c-0.05-1.48,0.24-1.77,1.72-1.72H80.86z M79.9,32.17
		c5.2,0,6.59-2.48,6.59-11.69c0-9.74-1.43-12.79-6.06-12.79H79.9V32.17z"/>
	<path class="st1" d="M104.34,32.27c1.43-0.05,1.77,0.24,1.72,1.72v0.19c0.05,1.48-0.29,1.77-1.72,1.72h-7.88
		c-1.48,0.05-1.77-0.24-1.72-1.72V5.78c-0.05-1.48,0.24-1.77,1.72-1.72h0.86c1.48-0.05,1.77,0.24,1.72,1.72v26.49H104.34z"/>
	<path class="st1" d="M110.88,4.06c1.48-0.05,1.77,0.24,1.72,1.72v20.76c0,2.43,0.14,3.63,0.48,4.25c0.48,0.95,1.38,1.48,2.72,1.48
		c1.48,0,2.39-0.57,2.77-1.77c0.19-0.57,0.29-1.48,0.29-3.34V5.78c-0.05-1.48,0.24-1.77,1.72-1.72h0.76
		c1.48-0.05,1.77,0.24,1.72,1.72v21.38c0,3.91-0.38,5.68-1.62,7.06c-1.24,1.38-3.15,2.1-5.78,2.1c-3.15,0-5.3-1.1-6.4-3.29
		c-0.62-1.34-0.86-2.96-0.86-6.49V5.78c-0.05-1.48,0.24-1.77,1.72-1.72H110.88z"/>
	<path class="st1" d="M136.75,22.77c-1.43,0.05-1.77-0.24-1.72-1.72v-0.19c-0.05-1.48,0.29-1.77,1.72-1.72h4.39
		c1.19-0.05,1.58,0.19,1.67,1v0.24c0,5.25-0.24,8.35-0.91,10.79c-0.86,3.34-3.25,5.15-6.73,5.15c-6.06,0-8.4-4.53-8.4-16.23
		c0-6.59,0.72-11.17,2.1-13.32c1.34-2.15,3.29-3.15,6.06-3.15c3.34,0,5.49,1.29,6.83,4.1c0.38,0.86,0.62,1.53,0.62,1.86
		c0,0.57-0.19,0.76-1.24,1.19l-0.81,0.33c-0.72,0.29-0.81,0.33-1.1,0.33c-0.52,0-0.57-0.05-1.19-1.81c-0.57-1.43-1.67-2.24-3.1-2.24
		c-2.86,0-3.72,2.82-3.72,12.6c0,9.64,0.86,12.36,3.82,12.36c1.91,0,3.01-1.19,3.44-3.58c0.24-1.48,0.29-2.2,0.29-5.35v-0.67H136.75
		z"/>
	<path class="st1" d="M160.48,7.02c1.48,2.77,2.05,6.49,2.05,13.75c0,11.22-2.29,15.56-8.16,15.56c-2.91,0-5.3-1.34-6.44-3.58
		c-1.38-2.72-1.96-6.78-1.96-13.51c0-5.87,0.48-9.12,1.72-11.69c1.24-2.63,3.39-3.91,6.49-3.91C157.04,3.63,159.33,4.87,160.48,7.02
		 M151.22,9.93c-0.57,1.53-0.76,4.3-0.76,10.17c0,9.55,0.86,12.27,3.82,12.27c1.77,0,2.82-1.1,3.25-3.39
		c0.33-1.77,0.53-4.63,0.53-7.78c0-11.03-0.72-13.7-3.82-13.7C152.79,7.5,151.84,8.26,151.22,9.93"/>
	<path class="st1" d="M82.47,44.33h1.74v1.19h0.03c0.38-0.7,0.79-1.37,1.89-1.37c0.12,0,0.23,0.01,0.35,0.03v1.84
		c-0.16-0.03-0.35-0.03-0.52-0.03c-1.41,0-1.67,0.88-1.67,1.65v3.59h-1.82V44.33z"/>
	<path class="st1" d="M93.78,49.2c-0.48,1.66-1.85,2.2-3.03,2.2c-1.94,0-3.44-0.93-3.44-3.77c0-0.83,0.29-3.49,3.31-3.49
		c1.36,0,3.24,0.65,3.24,3.8v0.32h-4.73c0.05,0.52,0.16,1.68,1.62,1.68c0.51,0,1.02-0.26,1.17-0.75H93.78z M91.99,47.09
		c-0.1-1.11-0.82-1.45-1.4-1.45c-0.86,0-1.31,0.54-1.41,1.45H91.99z"/>
	<path class="st1" d="M100.97,49.88c0,0.82,0.18,1,0.4,1.08v0.27h-1.96c-0.1-0.32-0.13-0.43-0.17-0.82c-0.41,0.43-1,1-2.23,1
		c-1.04,0-2.1-0.58-2.1-2.01c0-1.35,0.86-2.04,2.01-2.2l1.63-0.25c0.28-0.04,0.63-0.16,0.63-0.54c0-0.76-0.73-0.8-1.19-0.8
		c-0.91,0-1.06,0.56-1.11,0.96h-1.75c0.21-2.11,1.67-2.41,3.09-2.41c0.97,0,2.75,0.3,2.75,2V49.88z M99.2,47.87
		c-0.18,0.14-0.48,0.26-1.23,0.38c-0.67,0.12-1.23,0.29-1.23,1.04c0,0.64,0.49,0.83,0.84,0.83c0.8,0,1.62-0.52,1.62-1.36V47.87z"/>
	<rect x="102.97" y="41.92" class="st1" width="1.82" height="9.31"/>
	<path class="st1" d="M108.71,43.51h-1.82v-1.69h1.82V43.51z M108.71,51.22h-1.82v-6.9h1.82V51.22z"/>
	<path class="st1" d="M112.81,44.33h1.13v1.3h-1.13v3.75c0,0.4,0.01,0.56,0.75,0.56c0.12,0,0.25-0.01,0.38-0.03v1.37
		c-0.29,0.01-0.57,0.03-0.86,0.03h-0.23c-1.57,0-1.85-0.6-1.85-1.49v-4.19h-0.93v-1.3h0.93v-1.87h1.82V44.33z"/>
	<path class="st1" d="M119.19,51.11c-0.86,2.55-1.09,2.89-2.67,2.89c-0.25,0-0.56-0.01-0.82-0.03v-1.45
		c0.08,0.01,0.19,0.03,0.35,0.03c0.66,0,1.02-0.09,1.19-1.04l-2.54-7.18h2.02l1.48,5.08h0.03l1.41-5.08h1.92L119.19,51.11z"/>
</g>
</svg>
